solid OpenSCAD_Model
  facet normal 1 0 0
    outer loop
      vertex 13.5 7 1.5
      vertex 13.5 4.25 1
      vertex 13.5 7 0
    endloop
  endfacet
  facet normal 1 0 0
    outer loop
      vertex 13.5 7 1.5
      vertex 13.5 2.25 1
      vertex 13.5 4.25 1
    endloop
  endfacet
  facet normal 1 -0 0
    outer loop
      vertex 13.5 -1.5 1.5
      vertex 13.5 2.25 1
      vertex 13.5 7 1.5
    endloop
  endfacet
  facet normal 1 0 0
    outer loop
      vertex 13.5 -1.5 0
      vertex 13.5 2.25 1
      vertex 13.5 -1.5 1.5
    endloop
  endfacet
  facet normal 1 0 0
    outer loop
      vertex 13.5 2.25 1
      vertex 13.5 -1.5 0
      vertex 13.5 2.25 0
    endloop
  endfacet
  facet normal 1 0 0
    outer loop
      vertex 13.5 7 0
      vertex 13.5 4.25 1
      vertex 13.5 4.25 0
    endloop
  endfacet
  facet normal 0 0 1
    outer loop
      vertex 13.5 7 1.5
      vertex 11.4 4.9 1.5
      vertex 13.5 -1.5 1.5
    endloop
  endfacet
  facet normal -0 0 1
    outer loop
      vertex -1.5 7 1.5
      vertex 11.4 4.9 1.5
      vertex 13.5 7 1.5
    endloop
  endfacet
  facet normal 0 0 1
    outer loop
      vertex -1.5 -1.5 1.5
      vertex 0 4.9 1.5
      vertex -1.5 7 1.5
    endloop
  endfacet
  facet normal 0 0 1
    outer loop
      vertex 11.4 4.9 1.5
      vertex -1.5 7 1.5
      vertex 0 4.9 1.5
    endloop
  endfacet
  facet normal -0 0 1
    outer loop
      vertex 11.4 0 1.5
      vertex 13.5 -1.5 1.5
      vertex 11.4 4.9 1.5
    endloop
  endfacet
  facet normal 0 0 1
    outer loop
      vertex -1.5 -1.5 1.5
      vertex 11.4 0 1.5
      vertex 0 0 1.5
    endloop
  endfacet
  facet normal 0 0 1
    outer loop
      vertex 11.4 0 1.5
      vertex -1.5 -1.5 1.5
      vertex 13.5 -1.5 1.5
    endloop
  endfacet
  facet normal 0 0 1
    outer loop
      vertex 0 4.9 1.5
      vertex -1.5 -1.5 1.5
      vertex 0 0 1.5
    endloop
  endfacet
  facet normal 0 0 -1
    outer loop
      vertex 13.5 -1.5 0
      vertex 12.5 2.25 0
      vertex 13.5 2.25 0
    endloop
  endfacet
  facet normal 0 0 -1
    outer loop
      vertex -1.5 7 0
      vertex 12.5 2.25 0
      vertex -1.5 -1.5 0
    endloop
  endfacet
  facet normal 0 0 -1
    outer loop
      vertex -1.5 -1.5 0
      vertex 12.5 2.25 0
      vertex 13.5 -1.5 0
    endloop
  endfacet
  facet normal 0 0 -1
    outer loop
      vertex 12.5 4.25 0
      vertex 13.5 7 0
      vertex 13.5 4.25 0
    endloop
  endfacet
  facet normal 0 0 -1
    outer loop
      vertex 12.5 2.25 0
      vertex -1.5 7 0
      vertex 12.5 4.25 0
    endloop
  endfacet
  facet normal 0 0 -1
    outer loop
      vertex 12.5 4.25 0
      vertex -1.5 7 0
      vertex 13.5 7 0
    endloop
  endfacet
  facet normal -1 0 0
    outer loop
      vertex -1.5 -1.5 0
      vertex -1.5 7 1.5
      vertex -1.5 7 0
    endloop
  endfacet
  facet normal -1 -0 0
    outer loop
      vertex -1.5 7 1.5
      vertex -1.5 -1.5 0
      vertex -1.5 -1.5 1.5
    endloop
  endfacet
  facet normal 0 1 -0
    outer loop
      vertex 13.5 7 0
      vertex -1.5 7 1.5
      vertex 13.5 7 1.5
    endloop
  endfacet
  facet normal 0 1 0
    outer loop
      vertex -1.5 7 1.5
      vertex 13.5 7 0
      vertex -1.5 7 0
    endloop
  endfacet
  facet normal 0 -1 0
    outer loop
      vertex -1.5 -1.5 0
      vertex 13.5 -1.5 1.5
      vertex -1.5 -1.5 1.5
    endloop
  endfacet
  facet normal 0 -1 -0
    outer loop
      vertex 13.5 -1.5 1.5
      vertex -1.5 -1.5 0
      vertex 13.5 -1.5 0
    endloop
  endfacet
  facet normal 1 -0 0
    outer loop
      vertex 11.4 0 5.4
      vertex 11.4 4.9 1.5
      vertex 11.4 4.9 5.4
    endloop
  endfacet
  facet normal 1 0 0
    outer loop
      vertex 11.4 4.9 1.5
      vertex 11.4 0 5.4
      vertex 11.4 0 1.5
    endloop
  endfacet
  facet normal -0 0 1
    outer loop
      vertex 0 4.9 5.4
      vertex 11.4 0 5.4
      vertex 11.4 4.9 5.4
    endloop
  endfacet
  facet normal 0 0 1
    outer loop
      vertex 11.4 0 5.4
      vertex 0 4.9 5.4
      vertex 0 0 5.4
    endloop
  endfacet
  facet normal -1 0 0
    outer loop
      vertex 0 0 1.5
      vertex 0 4.9 5.4
      vertex 0 4.9 1.5
    endloop
  endfacet
  facet normal -1 -0 0
    outer loop
      vertex 0 4.9 5.4
      vertex 0 0 1.5
      vertex 0 0 5.4
    endloop
  endfacet
  facet normal 0 1 -0
    outer loop
      vertex 11.4 4.9 1.5
      vertex 0 4.9 5.4
      vertex 11.4 4.9 5.4
    endloop
  endfacet
  facet normal 0 1 0
    outer loop
      vertex 0 4.9 5.4
      vertex 11.4 4.9 1.5
      vertex 0 4.9 1.5
    endloop
  endfacet
  facet normal 0 -1 0
    outer loop
      vertex 0 0 1.5
      vertex 11.4 0 5.4
      vertex 0 0 5.4
    endloop
  endfacet
  facet normal 0 -1 -0
    outer loop
      vertex 11.4 0 5.4
      vertex 0 0 1.5
      vertex 11.4 0 1.5
    endloop
  endfacet
  facet normal 0.980813 -0 0.19495
    outer loop
      vertex 14.4659 2.25 0.258819
      vertex 14.4914 4.25 0.130526
      vertex 14.4659 4.25 0.258819
    endloop
  endfacet
  facet normal 0.980813 0 0.19495
    outer loop
      vertex 14.4914 4.25 0.130526
      vertex 14.4659 2.25 0.258819
      vertex 14.4914 2.25 0.130526
    endloop
  endfacet
  facet normal 0.997836 -0 0.0657447
    outer loop
      vertex 14.4914 2.25 0.130526
      vertex 14.5 4.25 0
      vertex 14.4914 4.25 0.130526
    endloop
  endfacet
  facet normal 0.997836 0 0.0657447
    outer loop
      vertex 14.5 4.25 0
      vertex 14.4914 2.25 0.130526
      vertex 14.5 2.25 0
    endloop
  endfacet
  facet normal 0.555434 0 -0.831561
    outer loop
      vertex 14 2.25 -0.866025
      vertex 14.1088 4.25 -0.793353
      vertex 14.1088 2.25 -0.793353
    endloop
  endfacet
  facet normal 0.555434 0 -0.831561
    outer loop
      vertex 14.1088 4.25 -0.793353
      vertex 14 2.25 -0.866025
      vertex 14 4.25 -0.866025
    endloop
  endfacet
  facet normal -0.896734 0 -0.442569
    outer loop
      vertex 12.634 2.25 -0.5
      vertex 12.5761 4.25 -0.382683
      vertex 12.634 4.25 -0.5
    endloop
  endfacet
  facet normal -0.896734 -0 -0.442569
    outer loop
      vertex 12.5761 4.25 -0.382683
      vertex 12.634 2.25 -0.5
      vertex 12.5761 2.25 -0.382683
    endloop
  endfacet
  facet normal 0.321355 0 0.946959
    outer loop
      vertex 13.7588 4.25 0.965925
      vertex 13.8827 2.25 0.923879
      vertex 13.8827 4.25 0.923879
    endloop
  endfacet
  facet normal 0.321355 0 0.946959
    outer loop
      vertex 13.8827 2.25 0.923879
      vertex 13.7588 4.25 0.965925
      vertex 13.7588 2.25 0.965925
    endloop
  endfacet
  facet normal 0.555434 0 0.831561
    outer loop
      vertex 14 4.25 0.866025
      vertex 14.1088 2.25 0.793353
      vertex 14.1088 4.25 0.793353
    endloop
  endfacet
  facet normal 0.555434 0 0.831561
    outer loop
      vertex 14.1088 2.25 0.793353
      vertex 14 4.25 0.866025
      vertex 14 2.25 0.866025
    endloop
  endfacet
  facet normal 0.751639 -0 0.659574
    outer loop
      vertex 14.2071 2.25 0.707107
      vertex 14.2934 4.25 0.608761
      vertex 14.2071 4.25 0.707107
    endloop
  endfacet
  facet normal 0.751639 0 0.659574
    outer loop
      vertex 14.2934 4.25 0.608761
      vertex 14.2071 2.25 0.707107
      vertex 14.2934 2.25 0.608761
    endloop
  endfacet
  facet normal 0.947038 0 -0.321123
    outer loop
      vertex 14.4659 2.25 -0.258819
      vertex 14.4239 4.25 -0.382683
      vertex 14.4659 4.25 -0.258819
    endloop
  endfacet
  facet normal 0.947038 0 -0.321123
    outer loop
      vertex 14.4239 4.25 -0.382683
      vertex 14.4659 2.25 -0.258819
      vertex 14.4239 2.25 -0.382683
    endloop
  endfacet
  facet normal 0.997836 0 -0.0657447
    outer loop
      vertex 14.5 2.25 0
      vertex 14.4914 4.25 -0.130526
      vertex 14.5 4.25 0
    endloop
  endfacet
  facet normal 0.997836 0 -0.0657447
    outer loop
      vertex 14.4914 4.25 -0.130526
      vertex 14.5 2.25 0
      vertex 14.4914 2.25 -0.130526
    endloop
  endfacet
  facet normal 0.896734 -0 0.442569
    outer loop
      vertex 14.366 2.25 0.5
      vertex 14.4239 4.25 0.382683
      vertex 14.366 4.25 0.5
    endloop
  endfacet
  facet normal 0.896734 0 0.442569
    outer loop
      vertex 14.4239 4.25 0.382683
      vertex 14.366 2.25 0.5
      vertex 14.4239 2.25 0.382683
    endloop
  endfacet
  facet normal 0.659515 0 -0.751691
    outer loop
      vertex 14.1088 2.25 -0.793353
      vertex 14.2071 4.25 -0.707107
      vertex 14.2071 2.25 -0.707107
    endloop
  endfacet
  facet normal 0.659515 0 -0.751691
    outer loop
      vertex 14.2071 4.25 -0.707107
      vertex 14.1088 2.25 -0.793353
      vertex 14.1088 4.25 -0.793353
    endloop
  endfacet
  facet normal 0.831723 0 -0.555191
    outer loop
      vertex 14.366 2.25 -0.5
      vertex 14.2934 4.25 -0.608761
      vertex 14.366 4.25 -0.5
    endloop
  endfacet
  facet normal 0.831723 0 -0.555191
    outer loop
      vertex 14.2934 4.25 -0.608761
      vertex 14.366 2.25 -0.5
      vertex 14.2934 2.25 -0.608761
    endloop
  endfacet
  facet normal 0.659515 0 0.751691
    outer loop
      vertex 14.1088 4.25 0.793353
      vertex 14.2071 2.25 0.707107
      vertex 14.2071 4.25 0.707107
    endloop
  endfacet
  facet normal 0.659515 0 0.751691
    outer loop
      vertex 14.2071 2.25 0.707107
      vertex 14.1088 4.25 0.793353
      vertex 14.1088 2.25 0.793353
    endloop
  endfacet
  facet normal -0.997836 0 -0.0657447
    outer loop
      vertex 12.5086 2.25 -0.130526
      vertex 12.5 4.25 0
      vertex 12.5086 4.25 -0.130526
    endloop
  endfacet
  facet normal -0.997836 -0 -0.0657447
    outer loop
      vertex 12.5 4.25 0
      vertex 12.5086 2.25 -0.130526
      vertex 12.5 2.25 0
    endloop
  endfacet
  facet normal 0.0654151 0 0.997858
    outer loop
      vertex 13.5 4.25 1
      vertex 13.6305 2.25 0.991445
      vertex 13.6305 4.25 0.991445
    endloop
  endfacet
  facet normal 0.0654151 0 0.997858
    outer loop
      vertex 13.6305 2.25 0.991445
      vertex 13.5 4.25 1
      vertex 13.5 2.25 1
    endloop
  endfacet
  facet normal -0.947038 0 -0.321123
    outer loop
      vertex 12.5761 2.25 -0.382683
      vertex 12.5341 4.25 -0.258819
      vertex 12.5761 4.25 -0.382683
    endloop
  endfacet
  facet normal -0.947038 -0 -0.321123
    outer loop
      vertex 12.5341 4.25 -0.258819
      vertex 12.5761 2.25 -0.382683
      vertex 12.5341 2.25 -0.258819
    endloop
  endfacet
  facet normal -0.751639 0 -0.659574
    outer loop
      vertex 12.7929 2.25 -0.707107
      vertex 12.7066 4.25 -0.608761
      vertex 12.7929 4.25 -0.707107
    endloop
  endfacet
  facet normal -0.751639 -0 -0.659574
    outer loop
      vertex 12.7066 4.25 -0.608761
      vertex 12.7929 2.25 -0.707107
      vertex 12.7066 2.25 -0.608761
    endloop
  endfacet
  facet normal 0 1 0
    outer loop
      vertex 13.5 4.25 0
      vertex 13.6305 4.25 0.991445
      vertex 13.7588 4.25 0.965925
    endloop
  endfacet
  facet normal 0 1 0
    outer loop
      vertex 13.5 4.25 0
      vertex 13.7588 4.25 0.965925
      vertex 13.8827 4.25 0.923879
    endloop
  endfacet
  facet normal 0 1 0
    outer loop
      vertex 13.5 4.25 0
      vertex 13.8827 4.25 0.923879
      vertex 14 4.25 0.866025
    endloop
  endfacet
  facet normal 0 1 0
    outer loop
      vertex 13.5 4.25 0
      vertex 14 4.25 0.866025
      vertex 14.1088 4.25 0.793353
    endloop
  endfacet
  facet normal 0 1 0
    outer loop
      vertex 13.5 4.25 0
      vertex 14.1088 4.25 0.793353
      vertex 14.2071 4.25 0.707107
    endloop
  endfacet
  facet normal 0 1 0
    outer loop
      vertex 13.5 4.25 0
      vertex 14.2071 4.25 0.707107
      vertex 14.2934 4.25 0.608761
    endloop
  endfacet
  facet normal 0 1 0
    outer loop
      vertex 13.5 4.25 0
      vertex 14.2934 4.25 0.608761
      vertex 14.366 4.25 0.5
    endloop
  endfacet
  facet normal 0 1 0
    outer loop
      vertex 13.5 4.25 0
      vertex 14.366 4.25 0.5
      vertex 14.4239 4.25 0.382683
    endloop
  endfacet
  facet normal 0 1 0
    outer loop
      vertex 13.5 4.25 0
      vertex 14.4239 4.25 0.382683
      vertex 14.4659 4.25 0.258819
    endloop
  endfacet
  facet normal 0 1 0
    outer loop
      vertex 13.5 4.25 0
      vertex 14.4659 4.25 0.258819
      vertex 14.4914 4.25 0.130526
    endloop
  endfacet
  facet normal 0 1 0
    outer loop
      vertex 13.5 4.25 0
      vertex 14.4914 4.25 0.130526
      vertex 14.5 4.25 0
    endloop
  endfacet
  facet normal 0 1 0
    outer loop
      vertex 13.6305 4.25 0.991445
      vertex 13.5 4.25 0
      vertex 13.5 4.25 1
    endloop
  endfacet
  facet normal 0 1 -0
    outer loop
      vertex 14.4914 4.25 -0.130526
      vertex 13.5 4.25 0
      vertex 14.5 4.25 0
    endloop
  endfacet
  facet normal 0 1 -0
    outer loop
      vertex 14.4659 4.25 -0.258819
      vertex 13.5 4.25 0
      vertex 14.4914 4.25 -0.130526
    endloop
  endfacet
  facet normal 0 1 0
    outer loop
      vertex 13.5 4.25 0
      vertex 12.5086 4.25 -0.130526
      vertex 12.5 4.25 0
    endloop
  endfacet
  facet normal 0 1 -0
    outer loop
      vertex 14.4239 4.25 -0.382683
      vertex 13.5 4.25 0
      vertex 14.4659 4.25 -0.258819
    endloop
  endfacet
  facet normal 0 1 0
    outer loop
      vertex 13.5 4.25 0
      vertex 12.5341 4.25 -0.258819
      vertex 12.5086 4.25 -0.130526
    endloop
  endfacet
  facet normal 0 1 -0
    outer loop
      vertex 14.366 4.25 -0.5
      vertex 13.5 4.25 0
      vertex 14.4239 4.25 -0.382683
    endloop
  endfacet
  facet normal 0 1 0
    outer loop
      vertex 13.5 4.25 0
      vertex 12.5761 4.25 -0.382683
      vertex 12.5341 4.25 -0.258819
    endloop
  endfacet
  facet normal 0 1 -0
    outer loop
      vertex 14.2934 4.25 -0.608761
      vertex 13.5 4.25 0
      vertex 14.366 4.25 -0.5
    endloop
  endfacet
  facet normal 0 1 0
    outer loop
      vertex 13.5 4.25 0
      vertex 12.634 4.25 -0.5
      vertex 12.5761 4.25 -0.382683
    endloop
  endfacet
  facet normal 0 1 -0
    outer loop
      vertex 14.2071 4.25 -0.707107
      vertex 13.5 4.25 0
      vertex 14.2934 4.25 -0.608761
    endloop
  endfacet
  facet normal 0 1 0
    outer loop
      vertex 13.5 4.25 0
      vertex 12.7066 4.25 -0.608761
      vertex 12.634 4.25 -0.5
    endloop
  endfacet
  facet normal 0 1 -0
    outer loop
      vertex 14.1088 4.25 -0.793353
      vertex 13.5 4.25 0
      vertex 14.2071 4.25 -0.707107
    endloop
  endfacet
  facet normal 0 1 0
    outer loop
      vertex 13.5 4.25 0
      vertex 12.7929 4.25 -0.707107
      vertex 12.7066 4.25 -0.608761
    endloop
  endfacet
  facet normal 0 1 -0
    outer loop
      vertex 14 4.25 -0.866025
      vertex 13.5 4.25 0
      vertex 14.1088 4.25 -0.793353
    endloop
  endfacet
  facet normal 0 1 0
    outer loop
      vertex 13.5 4.25 0
      vertex 12.8912 4.25 -0.793353
      vertex 12.7929 4.25 -0.707107
    endloop
  endfacet
  facet normal 0 1 -0
    outer loop
      vertex 13.8827 4.25 -0.923879
      vertex 13.5 4.25 0
      vertex 14 4.25 -0.866025
    endloop
  endfacet
  facet normal 0 1 0
    outer loop
      vertex 13.5 4.25 0
      vertex 13 4.25 -0.866025
      vertex 12.8912 4.25 -0.793353
    endloop
  endfacet
  facet normal 0 1 -0
    outer loop
      vertex 13.7588 4.25 -0.965925
      vertex 13.5 4.25 0
      vertex 13.8827 4.25 -0.923879
    endloop
  endfacet
  facet normal 0 1 0
    outer loop
      vertex 13.5 4.25 0
      vertex 13.1173 4.25 -0.923879
      vertex 13 4.25 -0.866025
    endloop
  endfacet
  facet normal 0 1 -0
    outer loop
      vertex 13.6305 4.25 -0.991445
      vertex 13.5 4.25 0
      vertex 13.7588 4.25 -0.965925
    endloop
  endfacet
  facet normal 0 1 0
    outer loop
      vertex 13.5 4.25 0
      vertex 13.2412 4.25 -0.965925
      vertex 13.1173 4.25 -0.923879
    endloop
  endfacet
  facet normal 0 1 0
    outer loop
      vertex 13.5 4.25 -1
      vertex 13.5 4.25 0
      vertex 13.6305 4.25 -0.991445
    endloop
  endfacet
  facet normal 0 1 0
    outer loop
      vertex 13.5 4.25 0
      vertex 13.3695 4.25 -0.991445
      vertex 13.2412 4.25 -0.965925
    endloop
  endfacet
  facet normal 0 1 0
    outer loop
      vertex 13.5 4.25 0
      vertex 13.5 4.25 -1
      vertex 13.3695 4.25 -0.991445
    endloop
  endfacet
  facet normal 0.442338 0 -0.896848
    outer loop
      vertex 13.8827 2.25 -0.923879
      vertex 14 4.25 -0.866025
      vertex 14 2.25 -0.866025
    endloop
  endfacet
  facet normal 0.442338 0 -0.896848
    outer loop
      vertex 14 4.25 -0.866025
      vertex 13.8827 2.25 -0.923879
      vertex 13.8827 4.25 -0.923879
    endloop
  endfacet
  facet normal 0.321355 0 -0.946959
    outer loop
      vertex 13.7588 2.25 -0.965925
      vertex 13.8827 4.25 -0.923879
      vertex 13.8827 2.25 -0.923879
    endloop
  endfacet
  facet normal 0.321355 0 -0.946959
    outer loop
      vertex 13.8827 4.25 -0.923879
      vertex 13.7588 2.25 -0.965925
      vertex 13.7588 4.25 -0.965925
    endloop
  endfacet
  facet normal 0.831723 -0 0.555191
    outer loop
      vertex 14.2934 2.25 0.608761
      vertex 14.366 4.25 0.5
      vertex 14.2934 4.25 0.608761
    endloop
  endfacet
  facet normal 0.831723 0 0.555191
    outer loop
      vertex 14.366 4.25 0.5
      vertex 14.2934 2.25 0.608761
      vertex 14.366 2.25 0.5
    endloop
  endfacet
  facet normal 0.751639 0 -0.659574
    outer loop
      vertex 14.2934 2.25 -0.608761
      vertex 14.2071 4.25 -0.707107
      vertex 14.2934 4.25 -0.608761
    endloop
  endfacet
  facet normal 0.751639 0 -0.659574
    outer loop
      vertex 14.2071 4.25 -0.707107
      vertex 14.2934 2.25 -0.608761
      vertex 14.2071 2.25 -0.707107
    endloop
  endfacet
  facet normal 0.195087 0 -0.980786
    outer loop
      vertex 13.6305 2.25 -0.991445
      vertex 13.7588 4.25 -0.965925
      vertex 13.7588 2.25 -0.965925
    endloop
  endfacet
  facet normal 0.195087 0 -0.980786
    outer loop
      vertex 13.7588 4.25 -0.965925
      vertex 13.6305 2.25 -0.991445
      vertex 13.6305 4.25 -0.991445
    endloop
  endfacet
  facet normal -0.195087 0 -0.980786
    outer loop
      vertex 13.2412 2.25 -0.965925
      vertex 13.3695 4.25 -0.991445
      vertex 13.3695 2.25 -0.991445
    endloop
  endfacet
  facet normal -0.195087 0 -0.980786
    outer loop
      vertex 13.3695 4.25 -0.991445
      vertex 13.2412 2.25 -0.965925
      vertex 13.2412 4.25 -0.965925
    endloop
  endfacet
  facet normal 0.442338 0 0.896848
    outer loop
      vertex 13.8827 4.25 0.923879
      vertex 14 2.25 0.866025
      vertex 14 4.25 0.866025
    endloop
  endfacet
  facet normal 0.442338 0 0.896848
    outer loop
      vertex 14 2.25 0.866025
      vertex 13.8827 4.25 0.923879
      vertex 13.8827 2.25 0.923879
    endloop
  endfacet
  facet normal 0.896734 0 -0.442569
    outer loop
      vertex 14.4239 2.25 -0.382683
      vertex 14.366 4.25 -0.5
      vertex 14.4239 4.25 -0.382683
    endloop
  endfacet
  facet normal 0.896734 0 -0.442569
    outer loop
      vertex 14.366 4.25 -0.5
      vertex 14.4239 2.25 -0.382683
      vertex 14.366 2.25 -0.5
    endloop
  endfacet
  facet normal 0.980813 0 -0.19495
    outer loop
      vertex 14.4914 2.25 -0.130526
      vertex 14.4659 4.25 -0.258819
      vertex 14.4914 4.25 -0.130526
    endloop
  endfacet
  facet normal 0.980813 0 -0.19495
    outer loop
      vertex 14.4659 4.25 -0.258819
      vertex 14.4914 2.25 -0.130526
      vertex 14.4659 2.25 -0.258819
    endloop
  endfacet
  facet normal -0.831723 0 -0.555191
    outer loop
      vertex 12.7066 2.25 -0.608761
      vertex 12.634 4.25 -0.5
      vertex 12.7066 4.25 -0.608761
    endloop
  endfacet
  facet normal -0.831723 -0 -0.555191
    outer loop
      vertex 12.634 4.25 -0.5
      vertex 12.7066 2.25 -0.608761
      vertex 12.634 2.25 -0.5
    endloop
  endfacet
  facet normal 0.195087 0 0.980786
    outer loop
      vertex 13.6305 4.25 0.991445
      vertex 13.7588 2.25 0.965925
      vertex 13.7588 4.25 0.965925
    endloop
  endfacet
  facet normal 0.195087 0 0.980786
    outer loop
      vertex 13.7588 2.25 0.965925
      vertex 13.6305 4.25 0.991445
      vertex 13.6305 2.25 0.991445
    endloop
  endfacet
  facet normal -0.980813 0 -0.19495
    outer loop
      vertex 12.5341 2.25 -0.258819
      vertex 12.5086 4.25 -0.130526
      vertex 12.5341 4.25 -0.258819
    endloop
  endfacet
  facet normal -0.980813 -0 -0.19495
    outer loop
      vertex 12.5086 4.25 -0.130526
      vertex 12.5341 2.25 -0.258819
      vertex 12.5086 2.25 -0.130526
    endloop
  endfacet
  facet normal 0.0654151 0 -0.997858
    outer loop
      vertex 13.5 2.25 -1
      vertex 13.6305 4.25 -0.991445
      vertex 13.6305 2.25 -0.991445
    endloop
  endfacet
  facet normal 0.0654151 0 -0.997858
    outer loop
      vertex 13.6305 4.25 -0.991445
      vertex 13.5 2.25 -1
      vertex 13.5 4.25 -1
    endloop
  endfacet
  facet normal -0.659515 0 -0.751691
    outer loop
      vertex 12.7929 2.25 -0.707107
      vertex 12.8912 4.25 -0.793353
      vertex 12.8912 2.25 -0.793353
    endloop
  endfacet
  facet normal -0.659515 0 -0.751691
    outer loop
      vertex 12.8912 4.25 -0.793353
      vertex 12.7929 2.25 -0.707107
      vertex 12.7929 4.25 -0.707107
    endloop
  endfacet
  facet normal 0.947038 -0 0.321123
    outer loop
      vertex 14.4239 2.25 0.382683
      vertex 14.4659 4.25 0.258819
      vertex 14.4239 4.25 0.382683
    endloop
  endfacet
  facet normal 0.947038 0 0.321123
    outer loop
      vertex 14.4659 4.25 0.258819
      vertex 14.4239 2.25 0.382683
      vertex 14.4659 2.25 0.258819
    endloop
  endfacet
  facet normal -0.0654151 0 -0.997858
    outer loop
      vertex 13.3695 2.25 -0.991445
      vertex 13.5 4.25 -1
      vertex 13.5 2.25 -1
    endloop
  endfacet
  facet normal -0.0654151 0 -0.997858
    outer loop
      vertex 13.5 4.25 -1
      vertex 13.3695 2.25 -0.991445
      vertex 13.3695 4.25 -0.991445
    endloop
  endfacet
  facet normal -0.555434 0 -0.831561
    outer loop
      vertex 12.8912 2.25 -0.793353
      vertex 13 4.25 -0.866025
      vertex 13 2.25 -0.866025
    endloop
  endfacet
  facet normal -0.555434 0 -0.831561
    outer loop
      vertex 13 4.25 -0.866025
      vertex 12.8912 2.25 -0.793353
      vertex 12.8912 4.25 -0.793353
    endloop
  endfacet
  facet normal -0.442338 0 -0.896848
    outer loop
      vertex 13 2.25 -0.866025
      vertex 13.1173 4.25 -0.923879
      vertex 13.1173 2.25 -0.923879
    endloop
  endfacet
  facet normal -0.442338 0 -0.896848
    outer loop
      vertex 13.1173 4.25 -0.923879
      vertex 13 2.25 -0.866025
      vertex 13 4.25 -0.866025
    endloop
  endfacet
  facet normal 0 -1 0
    outer loop
      vertex 12.5086 2.25 -0.130526
      vertex 13.5 2.25 0
      vertex 12.5 2.25 0
    endloop
  endfacet
  facet normal 0 -1 0
    outer loop
      vertex 12.5341 2.25 -0.258819
      vertex 13.5 2.25 0
      vertex 12.5086 2.25 -0.130526
    endloop
  endfacet
  facet normal 0 -1 0
    outer loop
      vertex 13.5 2.25 0
      vertex 14.4914 2.25 -0.130526
      vertex 14.5 2.25 0
    endloop
  endfacet
  facet normal 0 -1 0
    outer loop
      vertex 12.5761 2.25 -0.382683
      vertex 13.5 2.25 0
      vertex 12.5341 2.25 -0.258819
    endloop
  endfacet
  facet normal 0 -1 0
    outer loop
      vertex 13.5 2.25 0
      vertex 14.4659 2.25 -0.258819
      vertex 14.4914 2.25 -0.130526
    endloop
  endfacet
  facet normal 0 -1 0
    outer loop
      vertex 12.634 2.25 -0.5
      vertex 13.5 2.25 0
      vertex 12.5761 2.25 -0.382683
    endloop
  endfacet
  facet normal 0 -1 0
    outer loop
      vertex 13.5 2.25 0
      vertex 14.4239 2.25 -0.382683
      vertex 14.4659 2.25 -0.258819
    endloop
  endfacet
  facet normal 0 -1 0
    outer loop
      vertex 12.7066 2.25 -0.608761
      vertex 13.5 2.25 0
      vertex 12.634 2.25 -0.5
    endloop
  endfacet
  facet normal 0 -1 0
    outer loop
      vertex 13.5 2.25 0
      vertex 14.366 2.25 -0.5
      vertex 14.4239 2.25 -0.382683
    endloop
  endfacet
  facet normal 0 -1 0
    outer loop
      vertex 12.7929 2.25 -0.707107
      vertex 13.5 2.25 0
      vertex 12.7066 2.25 -0.608761
    endloop
  endfacet
  facet normal 0 -1 0
    outer loop
      vertex 13.5 2.25 0
      vertex 14.2934 2.25 -0.608761
      vertex 14.366 2.25 -0.5
    endloop
  endfacet
  facet normal 0 -1 0
    outer loop
      vertex 12.8912 2.25 -0.793353
      vertex 13.5 2.25 0
      vertex 12.7929 2.25 -0.707107
    endloop
  endfacet
  facet normal 0 -1 0
    outer loop
      vertex 13.5 2.25 0
      vertex 14.2071 2.25 -0.707107
      vertex 14.2934 2.25 -0.608761
    endloop
  endfacet
  facet normal 0 -1 0
    outer loop
      vertex 13 2.25 -0.866025
      vertex 13.5 2.25 0
      vertex 12.8912 2.25 -0.793353
    endloop
  endfacet
  facet normal 0 -1 0
    outer loop
      vertex 13.5 2.25 0
      vertex 14.1088 2.25 -0.793353
      vertex 14.2071 2.25 -0.707107
    endloop
  endfacet
  facet normal 0 -1 0
    outer loop
      vertex 13.1173 2.25 -0.923879
      vertex 13.5 2.25 0
      vertex 13 2.25 -0.866025
    endloop
  endfacet
  facet normal 0 -1 0
    outer loop
      vertex 13.5 2.25 0
      vertex 14 2.25 -0.866025
      vertex 14.1088 2.25 -0.793353
    endloop
  endfacet
  facet normal 0 -1 0
    outer loop
      vertex 13.2412 2.25 -0.965925
      vertex 13.5 2.25 0
      vertex 13.1173 2.25 -0.923879
    endloop
  endfacet
  facet normal 0 -1 0
    outer loop
      vertex 13.5 2.25 0
      vertex 13.8827 2.25 -0.923879
      vertex 14 2.25 -0.866025
    endloop
  endfacet
  facet normal 0 -1 0
    outer loop
      vertex 13.3695 2.25 -0.991445
      vertex 13.5 2.25 0
      vertex 13.2412 2.25 -0.965925
    endloop
  endfacet
  facet normal 0 -1 0
    outer loop
      vertex 13.5 2.25 0
      vertex 13.7588 2.25 -0.965925
      vertex 13.8827 2.25 -0.923879
    endloop
  endfacet
  facet normal 0 -1 0
    outer loop
      vertex 13.5 2.25 -1
      vertex 13.5 2.25 0
      vertex 13.3695 2.25 -0.991445
    endloop
  endfacet
  facet normal 0 -1 0
    outer loop
      vertex 13.5 2.25 0
      vertex 13.6305 2.25 -0.991445
      vertex 13.7588 2.25 -0.965925
    endloop
  endfacet
  facet normal 0 -1 0
    outer loop
      vertex 13.5 2.25 0
      vertex 13.5 2.25 -1
      vertex 13.6305 2.25 -0.991445
    endloop
  endfacet
  facet normal 0 -1 0
    outer loop
      vertex 13.5 2.25 0
      vertex 13.6305 2.25 0.991445
      vertex 13.5 2.25 1
    endloop
  endfacet
  facet normal 0 -1 -0
    outer loop
      vertex 13.6305 2.25 0.991445
      vertex 13.5 2.25 0
      vertex 13.7588 2.25 0.965925
    endloop
  endfacet
  facet normal 0 -1 -0
    outer loop
      vertex 13.7588 2.25 0.965925
      vertex 13.5 2.25 0
      vertex 13.8827 2.25 0.923879
    endloop
  endfacet
  facet normal 0 -1 -0
    outer loop
      vertex 13.8827 2.25 0.923879
      vertex 13.5 2.25 0
      vertex 14 2.25 0.866025
    endloop
  endfacet
  facet normal 0 -1 -0
    outer loop
      vertex 14 2.25 0.866025
      vertex 13.5 2.25 0
      vertex 14.1088 2.25 0.793353
    endloop
  endfacet
  facet normal 0 -1 -0
    outer loop
      vertex 14.1088 2.25 0.793353
      vertex 13.5 2.25 0
      vertex 14.2071 2.25 0.707107
    endloop
  endfacet
  facet normal 0 -1 -0
    outer loop
      vertex 14.2071 2.25 0.707107
      vertex 13.5 2.25 0
      vertex 14.2934 2.25 0.608761
    endloop
  endfacet
  facet normal 0 -1 -0
    outer loop
      vertex 14.2934 2.25 0.608761
      vertex 13.5 2.25 0
      vertex 14.366 2.25 0.5
    endloop
  endfacet
  facet normal 0 -1 -0
    outer loop
      vertex 14.366 2.25 0.5
      vertex 13.5 2.25 0
      vertex 14.4239 2.25 0.382683
    endloop
  endfacet
  facet normal 0 -1 -0
    outer loop
      vertex 14.4239 2.25 0.382683
      vertex 13.5 2.25 0
      vertex 14.4659 2.25 0.258819
    endloop
  endfacet
  facet normal 0 -1 -0
    outer loop
      vertex 14.4659 2.25 0.258819
      vertex 13.5 2.25 0
      vertex 14.4914 2.25 0.130526
    endloop
  endfacet
  facet normal 0 -1 -0
    outer loop
      vertex 14.4914 2.25 0.130526
      vertex 13.5 2.25 0
      vertex 14.5 2.25 0
    endloop
  endfacet
  facet normal -0.321355 0 -0.946959
    outer loop
      vertex 13.1173 2.25 -0.923879
      vertex 13.2412 4.25 -0.965925
      vertex 13.2412 2.25 -0.965925
    endloop
  endfacet
  facet normal -0.321355 0 -0.946959
    outer loop
      vertex 13.2412 4.25 -0.965925
      vertex 13.1173 2.25 -0.923879
      vertex 13.1173 4.25 -0.923879
    endloop
  endfacet
endsolid OpenSCAD_Model
